# xmcd
#
# Track frame offsets:
#	150
#	36668
#	68007
#	95107
#	125465
#	153518
#	186311
#	205807
#	230754
#	248119
#	274860
#	302564
#	327316
#
# Disc length: 4679 seconds
#
# Revision: 0
# Processed by: cddbd v1.5.2PL0 Copyright (c) Steve Scherf et al.
# Submitted via: audiograbber 1.83.01
#
DISCID=c212450d
DTITLE=ATB - The DJ 4 In The Mix CD2
DYEAR=2007
DGENRE=Trance
TTITLE0=Breakfast - Dancing In The Moonlight (Original Mix)
TTITLE1=Cosmic Gate feat. Denise Rivera - Body Of Conflict (Extended Vocal Mix)
TTITLE2=ATB - Desperate Religion (Cunningham Remix)
TTITLE3=Deadmau5 - Not Exactly (Original Mix)
TTITLE4=Arabella - Nabucco (Midor Remix)
TTITLE5=ATB - Justify (Adam Nickey Remix)
TTITLE6=Jose Amnesia feat. Jennifer Rene - Wouldn't Change A Thing (Retrobyte C
TTITLE6=lub Edit)
TTITLE7=Andrew Bennett - Safe From Harm (Simon and Shaker Remix)
TTITLE8=Glenn Morrison - No Sudden Moves (Original Mix)
TTITLE9=Adam Nickey - Never Gone (Above and Beyond Mix)
TTITLE10=Van der Vleuten - Broken Dreams (Original Mix)
TTITLE11=Sied van Riel - Sigh (Original Mix)
TTITLE12=Glenn Morrison - Circles (Original Mix)
EXTD=
EXTT0=
EXTT1=
EXTT2=
EXTT3=
EXTT4=
EXTT5=
EXTT6=
EXTT7=
EXTT8=
EXTT9=
EXTT10=
EXTT11=
EXTT12=
PLAYORDER=
